<mxfile host="drawio-plugin" modified="2021-06-03T07:37:51.018Z" agent="5.0 (Macintosh; Intel Mac OS X 10_16_0) AppleWebKit/537.36 (KHTML, like Gecko) Chrome/84.0.4147.105 Safari/537.36" etag="kafz7qVqKTKCC8WfrPxv" version="14.6.6" type="embed"><diagram id="p84us7BMAuNoco6ugW06" name="Page-1"><mxGraphModel dx="977" dy="1165" grid="0" gridSize="10" guides="1" tooltips="1" connect="1" arrows="1" fold="1" page="0" pageScale="1" pageWidth="850" pageHeight="1100" math="0" shadow="0"><root><mxCell id="0"/><mxCell id="1" parent="0"/><mxCell id="2" value="Author" style="swimlane;childLayout=stackLayout;horizontal=1;startSize=30;horizontalStack=0;rounded=1;fontSize=14;fontStyle=0;strokeWidth=2;resizeParent=0;resizeLast=1;shadow=0;dashed=0;align=center;" parent="1" vertex="1"><mxGeometry x="40" y="160" width="160" height="120" as="geometry"/></mxCell><mxCell id="3" value="Name&#10;" style="align=left;strokeColor=none;fillColor=none;spacingLeft=4;fontSize=12;verticalAlign=top;resizable=0;rotatable=0;part=1;" parent="2" vertex="1"><mxGeometry y="30" width="160" height="90" as="geometry"/></mxCell><mxCell id="4" value="Event card" style="swimlane;childLayout=stackLayout;horizontal=1;startSize=30;horizontalStack=0;rounded=1;fontSize=14;fontStyle=0;strokeWidth=2;resizeParent=0;resizeLast=1;shadow=0;dashed=0;align=center;" parent="1" vertex="1"><mxGeometry x="410" y="155" width="160" height="130" as="geometry"/></mxCell><mxCell id="5" value="Event Description&#10;Relationship" style="align=left;strokeColor=none;fillColor=none;spacingLeft=4;fontSize=12;verticalAlign=top;resizable=0;rotatable=0;part=1;" parent="4" vertex="1"><mxGeometry y="30" width="160" height="100" as="geometry"/></mxCell><mxCell id="6" value="Story" style="swimlane;childLayout=stackLayout;horizontal=1;startSize=30;horizontalStack=0;rounded=1;fontSize=14;fontStyle=0;strokeWidth=2;resizeParent=0;resizeLast=1;shadow=0;dashed=0;align=center;" parent="1" vertex="1"><mxGeometry x="760" y="160" width="160" height="120" as="geometry"/></mxCell><mxCell id="7" value="Chapter&#10;Direction" style="align=left;strokeColor=none;fillColor=none;spacingLeft=4;fontSize=12;verticalAlign=top;resizable=0;rotatable=0;part=1;" parent="6" vertex="1"><mxGeometry y="30" width="160" height="90" as="geometry"/></mxCell><mxCell id="8" value="Note" style="swimlane;childLayout=stackLayout;horizontal=1;startSize=30;horizontalStack=0;rounded=1;fontSize=14;fontStyle=0;strokeWidth=2;resizeParent=0;resizeLast=1;shadow=0;dashed=0;align=center;" parent="1" vertex="1"><mxGeometry x="410" y="430" width="160" height="190" as="geometry"/></mxCell><mxCell id="9" value="&#10;Time&#10;Location&#10;Role&#10;Background&#10;Action&#10;Result&#10;Comment&#10;Relationship" style="align=left;strokeColor=none;fillColor=none;spacingLeft=4;fontSize=12;verticalAlign=top;resizable=0;rotatable=0;part=1;" parent="8" vertex="1"><mxGeometry y="30" width="160" height="160" as="geometry"/></mxCell><mxCell id="10" value="Time LIne" style="swimlane;childLayout=stackLayout;horizontal=1;startSize=30;horizontalStack=0;rounded=1;fontSize=14;fontStyle=0;strokeWidth=2;resizeParent=0;resizeLast=1;shadow=0;dashed=0;align=center;" parent="1" vertex="1"><mxGeometry x="760" y="430" width="160" height="120" as="geometry"/></mxCell><mxCell id="11" value="Events chronologically" style="align=left;strokeColor=none;fillColor=none;spacingLeft=4;fontSize=12;verticalAlign=top;resizable=0;rotatable=0;part=1;" parent="10" vertex="1"><mxGeometry y="30" width="160" height="90" as="geometry"/></mxCell><mxCell id="16" value="" style="endArrow=none;html=1;rounded=0;exitX=1;exitY=0.5;exitDx=0;exitDy=0;entryX=0;entryY=0.5;entryDx=0;entryDy=0;" parent="1" source="3" target="5" edge="1"><mxGeometry relative="1" as="geometry"><mxPoint x="150" y="340" as="sourcePoint"/><mxPoint x="310" y="340" as="targetPoint"/></mxGeometry></mxCell><mxCell id="17" value="1..*" style="resizable=0;html=1;align=left;verticalAlign=bottom;" parent="16" connectable="0" vertex="1"><mxGeometry x="-1" relative="1" as="geometry"/></mxCell><mxCell id="18" value="*" style="resizable=0;html=1;align=right;verticalAlign=bottom;" parent="16" connectable="0" vertex="1"><mxGeometry x="1" relative="1" as="geometry"/></mxCell><mxCell id="19" value="" style="endArrow=none;html=1;rounded=0;exitX=1;exitY=0.5;exitDx=0;exitDy=0;entryX=0;entryY=0.5;entryDx=0;entryDy=0;" parent="1" source="5" target="7" edge="1"><mxGeometry relative="1" as="geometry"><mxPoint x="570" y="360" as="sourcePoint"/><mxPoint x="780" y="360" as="targetPoint"/></mxGeometry></mxCell><mxCell id="20" value="*" style="resizable=0;html=1;align=left;verticalAlign=bottom;" parent="19" connectable="0" vertex="1"><mxGeometry x="-1" relative="1" as="geometry"/></mxCell><mxCell id="21" value="1" style="resizable=0;html=1;align=right;verticalAlign=bottom;" parent="19" connectable="0" vertex="1"><mxGeometry x="1" relative="1" as="geometry"/></mxCell><mxCell id="22" value="" style="endArrow=none;html=1;rounded=0;exitX=0.5;exitY=1;exitDx=0;exitDy=0;" parent="1" source="5" target="8" edge="1"><mxGeometry relative="1" as="geometry"><mxPoint x="450" y="360" as="sourcePoint"/><mxPoint x="660" y="360" as="targetPoint"/></mxGeometry></mxCell><mxCell id="23" value="1" style="resizable=0;html=1;align=left;verticalAlign=bottom;" parent="22" connectable="0" vertex="1"><mxGeometry x="-1" relative="1" as="geometry"/></mxCell><mxCell id="24" value="1" style="resizable=0;html=1;align=right;verticalAlign=bottom;" parent="22" connectable="0" vertex="1"><mxGeometry x="1" relative="1" as="geometry"/></mxCell><mxCell id="25" value="" style="endArrow=none;html=1;rounded=0;exitX=0.5;exitY=1;exitDx=0;exitDy=0;entryX=0.5;entryY=0;entryDx=0;entryDy=0;" parent="1" source="7" target="10" edge="1"><mxGeometry relative="1" as="geometry"><mxPoint x="849" y="320" as="sourcePoint"/><mxPoint x="849" y="465" as="targetPoint"/></mxGeometry></mxCell><mxCell id="26" value="1" style="resizable=0;html=1;align=left;verticalAlign=bottom;" parent="25" connectable="0" vertex="1"><mxGeometry x="-1" relative="1" as="geometry"/></mxCell><mxCell id="27" value="1..*" style="resizable=0;html=1;align=right;verticalAlign=bottom;" parent="25" connectable="0" vertex="1"><mxGeometry x="1" relative="1" as="geometry"/></mxCell><mxCell id="32" value="Comment" style="swimlane;childLayout=stackLayout;horizontal=1;startSize=30;horizontalStack=0;rounded=1;fontSize=14;fontStyle=0;strokeWidth=2;resizeParent=0;resizeLast=1;shadow=0;dashed=0;align=center;" parent="1" vertex="1"><mxGeometry x="410" y="-60" width="160" height="120" as="geometry"/></mxCell><mxCell id="33" value="Writing time&#10;Writer name&#10;" style="align=left;strokeColor=none;fillColor=none;spacingLeft=4;fontSize=12;verticalAlign=top;resizable=0;rotatable=0;part=1;" parent="32" vertex="1"><mxGeometry y="30" width="160" height="90" as="geometry"/></mxCell><mxCell id="34" value="" style="endArrow=none;html=1;rounded=0;exitX=0.5;exitY=1;exitDx=0;exitDy=0;" parent="1" source="33" edge="1"><mxGeometry relative="1" as="geometry"><mxPoint x="489.5" y="110" as="sourcePoint"/><mxPoint x="490" y="160" as="targetPoint"/></mxGeometry></mxCell><mxCell id="35" value="1" style="resizable=0;html=1;align=left;verticalAlign=bottom;" parent="34" connectable="0" vertex="1"><mxGeometry x="-1" relative="1" as="geometry"/></mxCell><mxCell id="36" value="1" style="resizable=0;html=1;align=right;verticalAlign=bottom;" parent="34" connectable="0" vertex="1"><mxGeometry x="1" relative="1" as="geometry"/></mxCell><mxCell id="37" value="" style="endArrow=none;html=1;rounded=0;exitX=0.5;exitY=0;exitDx=0;exitDy=0;entryX=0;entryY=0.5;entryDx=0;entryDy=0;" parent="1" source="2" target="33" edge="1"><mxGeometry relative="1" as="geometry"><mxPoint x="140" y="40" as="sourcePoint"/><mxPoint x="350" y="40" as="targetPoint"/><Array as="points"><mxPoint x="120" y="15"/></Array></mxGeometry></mxCell><mxCell id="38" value="1..*" style="resizable=0;html=1;align=left;verticalAlign=bottom;" parent="37" connectable="0" vertex="1"><mxGeometry x="-1" relative="1" as="geometry"/></mxCell><mxCell id="39" value="*" style="resizable=0;html=1;align=right;verticalAlign=bottom;" parent="37" connectable="0" vertex="1"><mxGeometry x="1" relative="1" as="geometry"/></mxCell><mxCell id="40" value="Leave on" style="text;html=1;align=center;verticalAlign=middle;resizable=0;points=[];autosize=1;strokeColor=none;" parent="1" vertex="1"><mxGeometry x="110" y="-10" width="60" height="20" as="geometry"/></mxCell><mxCell id="41" value="Write" style="text;html=1;align=center;verticalAlign=middle;resizable=0;points=[];autosize=1;strokeColor=none;" parent="1" vertex="1"><mxGeometry x="270" y="210" width="40" height="20" as="geometry"/></mxCell><mxCell id="42" value="Contained -in" style="text;html=1;align=center;verticalAlign=middle;resizable=0;points=[];autosize=1;strokeColor=none;" parent="1" vertex="1"><mxGeometry x="490" y="350" width="90" height="20" as="geometry"/></mxCell><mxCell id="43" value="Have&amp;nbsp;" style="text;html=1;align=center;verticalAlign=middle;resizable=0;points=[];autosize=1;strokeColor=none;" parent="1" vertex="1"><mxGeometry x="845" y="340" width="50" height="20" as="geometry"/></mxCell><mxCell id="44" value="Annotated" style="text;html=1;align=center;verticalAlign=middle;resizable=0;points=[];autosize=1;strokeColor=none;" parent="1" vertex="1"><mxGeometry x="485" y="100" width="70" height="20" as="geometry"/></mxCell><mxCell id="45" value="&lt;span lang=&quot;EN-US&quot; style=&quot;font-size: 10.5pt ; font-family: &amp;#34;dengxian&amp;#34;&quot;&gt;constitute&lt;/span&gt;&lt;span style=&quot;font-size: medium&quot;&gt;&lt;/span&gt;" style="text;html=1;align=center;verticalAlign=middle;resizable=0;points=[];autosize=1;strokeColor=none;" parent="1" vertex="1"><mxGeometry x="620" y="210" width="70" height="20" as="geometry"/></mxCell><mxCell id="47" value="Event" style="swimlane;childLayout=stackLayout;horizontal=1;startSize=30;horizontalStack=0;rounded=1;fontSize=14;fontStyle=0;strokeWidth=2;resizeParent=0;resizeLast=1;shadow=0;dashed=0;align=center;" vertex="1" parent="1"><mxGeometry x="192" y="430" width="160" height="190" as="geometry"/></mxCell><mxCell id="49" value="" style="endArrow=none;html=1;rounded=0;exitX=0.25;exitY=1;exitDx=0;exitDy=0;entryX=0.75;entryY=0;entryDx=0;entryDy=0;" edge="1" parent="1" source="5" target="47"><mxGeometry relative="1" as="geometry"><mxPoint x="500" y="295" as="sourcePoint"/><mxPoint x="500" y="440" as="targetPoint"/></mxGeometry></mxCell><mxCell id="50" value="1" style="resizable=0;html=1;align=left;verticalAlign=bottom;" connectable="0" vertex="1" parent="49"><mxGeometry x="-1" relative="1" as="geometry"/></mxCell><mxCell id="51" value="1" style="resizable=0;html=1;align=right;verticalAlign=bottom;" connectable="0" vertex="1" parent="49"><mxGeometry x="1" relative="1" as="geometry"/></mxCell><mxCell id="52" value="Contained -in" style="text;html=1;align=center;verticalAlign=middle;resizable=0;points=[];autosize=1;strokeColor=none;" vertex="1" parent="1"><mxGeometry x="293" y="333" width="90" height="20" as="geometry"/></mxCell></root></mxGraphModel></diagram></mxfile>